<?xml version="1.0" encoding="UTF-8"?>
<svg width="105px" height="60px" viewBox="0 0 105 60" version="1.1" xmlns="http://www.w3.org/2000/svg" xmlns:xlink="http://www.w3.org/1999/xlink">
    <title>cregis-icon-light</title>
    <g id="页面-1" stroke="none" stroke-width="1" fill="none" fill-rule="evenodd">
        <g id="cregis-logo" transform="translate(-88, -388)">
            <g id="cregis-icon-light" transform="translate(88, 388)">
                <path d="M60.4206534,0.0417507862 C59.8584454,1.17567492 59.3237191,2.25760207 58.7862706,3.3380993 C57.0658131,6.7965484 55.3406888,10.2523976 53.6313796,13.7164364 C53.4990267,13.9848708 53.349433,14.0520769 53.0693012,14.0518169 C45.2065563,14.0442774 37.3438113,14.0466172 29.481196,14.0455773 C26.6846747,14.0451873 24.0474695,14.6757807 21.6382845,16.117267 C17.6180503,18.5227772 15.1099571,22.0306235 14.2868027,26.6609545 C13.7956323,29.424334 13.8080769,32.2178717 14.6445832,34.9218446 C16.3085218,40.3002822 19.8784193,43.7960391 25.2621084,45.4070355 C26.6135075,45.811572 28.0080737,45.9511839 29.4188437,45.9475441 C32.0325858,45.9405245 34.6461982,45.9484541 37.2599403,45.9411745 C37.5276275,45.9403945 37.5949058,45.966263 37.4562011,46.2440569 C35.2146285,50.7321762 32.9827782,55.2252352 30.7502797,59.7179042 C30.677168,59.8649257 30.6253158,59.9826988 30.4097401,59.9877685 C26.7636198,60.0740835 23.1942408,59.61794 19.7502146,58.3913313 C12.829625,55.9268044 7.51308456,51.5047213 3.8422048,45.1217021 C1.82955988,41.6224354 0.616476582,37.8510944 0.209436451,33.830818 C-0.120214203,30.5743771 -0.0868991351,27.3200162 0.497864569,24.0925637 C1.38142684,19.215247 3.38759024,14.8410011 6.48381748,10.9763256 C9.052837,7.76980186 12.163194,5.21948001 15.7999809,3.31470066 C18.6700027,1.81146798 21.7088036,0.827165162 24.9073094,0.338653539 C26.4041541,0.109996822 27.9122767,0.0114625457 29.4258437,0.0109425759 C35.4308523,0.00873270423 41.4359906,-0.0168758082 47.4408695,0.0188721152 C51.6631979,0.0440906503 55.8853967,0.021991934 60.1074658,0.0417507862 C60.1928924,0.0421407636 60.278319,0.0417507862 60.4206534,0.0417507862" id="Fill-3" fill="#1F211F"></path>
                <path d="M43.4065018,45.9541331 C45.2725345,45.96755 47.1388265,45.9613103 48.9998036,45.9613103 C49.049841,46.0594546 48.9829516,46.1183412 48.9519699,46.1807376 C46.7084529,50.700055 44.4629913,55.2185926 42.2176595,59.7372601 C42.1457145,59.8819417 42.0877696,60.0014047 41.8698605,59.9999875 C40.002013,59.9876255 38.1340358,59.9928252 36.2660587,59.9919153 C36.2139472,59.9919153 36.161706,59.9825558 36.0739461,59.9741063 C36.345263,59.4263181 36.6055612,58.8978988 36.8681929,58.3706495 C38.8781156,54.3384137 40.890242,50.3073479 42.8942016,46.2721223 C43.0093136,46.0403457 43.1403702,45.9523408 43.4065018,45.9541331 Z M54.4542228,45.954261 C56.2033287,45.96729 57.9526939,45.9609203 59.7017998,45.9613103 C59.8604676,45.9613103 60.0212096,45.9484411 60.1858405,46.0257866 C59.3711121,47.6626515 58.5584577,49.2941867 57.7472294,50.9262419 C56.2878479,53.8623813 54.8291146,56.7987808 53.3712887,59.7357002 C53.298177,59.8831116 53.2404914,60.0006248 53.0251749,59.9993355 C51.1140308,59.9880155 49.202757,59.9925652 47.2916128,59.9915253 C47.2601126,59.9915253 47.2286124,59.9809959 47.1586118,59.9683866 C47.9678958,58.3412712 48.7598092,56.7493836 49.551593,55.1573661 C51.0261412,52.1928883 52.5035414,49.2297105 53.9691451,46.2606829 C54.0810163,46.0341061 54.1991098,45.9524708 54.4542228,45.954261 Z M84.6239337,0.017869664 C84.8527317,0.017869664 84.960714,0.0926168314 85.0610481,0.294105127 C90.6281645,11.4715058 96.203318,22.6451368 101.770694,33.8224075 C102.486255,35.259084 103.266761,36.6654723 103.862284,38.1598655 C104.828421,40.5848746 105.208109,43.1012685 104.889736,45.6953978 C104.192194,51.3787976 101.299616,55.5770337 96.2622999,58.2608578 C94.4564158,59.222932 92.503401,59.7479715 90.4587373,59.9204714 C89.8654179,59.9706485 89.2728764,59.980268 88.6794274,59.980268 L74.0831336,59.9814391 L59.0738691,59.9816064 C59.0581838,59.8381862 59.1376473,59.755641 59.1837958,59.6626964 C61.4054053,55.1914761 63.6307741,50.7220758 65.8440872,46.2465657 C65.9611436,46.0101095 66.0947928,45.9557726 66.3372021,45.9561626 C71.510371,45.9626622 76.6836696,45.9552527 81.8569682,45.9642222 C83.7349269,45.967472 85.3449391,45.3363586 86.6403379,43.9719579 C88.5076669,42.0050421 88.9322071,39.166657 87.7136794,36.7266988 C86.0851299,33.4650582 84.4289692,30.2173269 82.7839567,26.9641359 L75.8319965,13.2188643 C75.7837739,13.1237099 75.7316624,13.0306353 75.6492173,12.8767242 C75.0280274,14.1379109 74.4330229,15.3441109 73.8394443,16.5510908 C70.1176197,24.1196411 66.3954062,31.6880615 62.6776002,39.2585617 C62.5681919,39.4814987 62.4512651,39.5878326 62.1755408,39.5873126 L54.80442,39.5790256 L47.1586118,39.5791231 C47.1692415,39.4237821 47.2563533,39.3130285 47.3157241,39.1939554 C51.4242369,30.9528242 55.5356014,22.7129928 59.6425586,14.4712116 C61.9970394,9.74650604 64.3462054,5.01946063 66.6892788,0.289165414 C66.7920759,0.0815674733 66.9058916,0.0186511281 67.1279488,0.0187811205 C72.9599006,0.0246307807 78.7919819,0.0248907656 84.6239337,0.017869664 Z" id="形状结合" fill="#00BE78"></path>
            </g>
        </g>
    </g>
</svg>
