<?xml version="1.0" encoding="UTF-8"?>
<svg width="300px" height="40px" viewBox="0 0 300 40" version="1.1" xmlns="http://www.w3.org/2000/svg" xmlns:xlink="http://www.w3.org/1999/xlink">
    <title>cregis-horizontal-light</title>
    <g id="页面-1" stroke="none" stroke-width="1" fill="none" fill-rule="evenodd">
        <g id="cregis-logo" transform="translate(-88, -268)">
            <g id="cregis-horizontal-light" transform="translate(88, 268)">
                <path d="M203.835109,17.520095 C204.287859,17.5194256 204.380835,17.6491253 204.374322,18.0711535 C204.349618,19.6192623 204.344453,21.1684912 204.376792,22.716376 C204.386674,23.1805174 204.273037,23.2936407 203.802545,23.2925206 C195.851345,23.2757201 187.899696,23.2869205 179.948496,23.2656398 C179.386152,23.2640718 179.27274,23.4246844 179.289134,23.9475156 C179.32866,25.2149443 179.327088,26.485061 179.289359,27.7527137 C179.274986,28.2307435 179.417144,28.3234822 179.874161,28.3225862 C189.023038,28.3080258 198.171914,28.3176581 207.320567,28.2970495 C207.884259,28.2959294 207.988014,28.4569901 207.975437,28.9760131 C207.939056,30.4864888 207.943098,31.9987566 207.97409,33.5092323 C207.983522,33.9693416 207.87303,34.0929932 207.398046,34.0914398 C201.541939,34.0730566 195.686056,34.0793288 189.830173,34.0795528 C183.99293,34.0795528 178.155687,34.0732806 172.318444,34.0912011 C171.830659,34.0927692 171.698832,33.9872621 171.70083,33.4832475 C171.722637,28.3526031 171.72129,23.2217346 171.702425,18.0910901 C171.70083,17.6144043 171.837172,17.5203216 172.291494,17.5209936 C182.806033,17.534434 193.320571,17.534658 203.835109,17.520095 Z M247.575984,6.74898651 C248.062645,6.74809623 248.197168,6.85158722 248.185041,7.35022565 C248.147087,8.89811045 248.152477,10.4477873 248.183019,11.9958961 C248.191553,12.4280046 248.064217,12.5061829 247.657281,12.5055108 C240.078882,12.4929665 232.500706,12.4920705 224.922307,12.5003587 C222.872804,12.5025988 221.289077,13.3818242 220.221655,15.1335549 C219.758125,15.8945049 219.521195,16.7352013 219.519174,17.6312272 C219.514907,19.4600161 219.49986,21.288805 219.520072,23.1171459 C219.551289,25.9425397 221.747217,28.2542866 224.57174,28.2854235 C229.791841,28.3427692 235.012841,28.3049121 240.233392,28.3181285 C240.569136,28.3190245 240.628874,28.1964929 240.625955,27.8981163 C240.612255,26.5175644 240.602598,25.1361164 240.629997,23.7560124 C240.638306,23.3407044 240.490085,23.2714864 240.117284,23.2737265 C237.684651,23.2882869 235.252242,23.2804467 232.819608,23.2799987 L232.137114,23.2799987 C232.957274,21.8562135 233.722638,20.5200148 234.495861,19.1887443 C234.812966,18.6428405 235.028337,17.900707 235.508261,17.625179 C235.98841,17.348979 236.740748,17.5340084 237.373834,17.5333364 C240.779342,17.5299763 244.185074,17.5400565 247.590581,17.521464 C248.03098,17.5189999 248.186163,17.5870979 248.184142,18.0794642 C248.162807,23.2295972 248.166401,28.3799543 248.179875,33.5300873 C248.180774,33.9483074 248.100599,34.0916716 247.639764,34.0907797 C239.18214,34.0748711 230.724291,34.0860714 222.266667,34.0766631 C217.291356,34.071287 213.314521,30.9222038 212.167149,26.1060644 C211.997817,25.3952919 211.939202,24.6663748 211.941672,23.9410418 C211.950656,21.2919411 211.867786,18.6419444 211.988834,15.9937398 C212.187586,11.6428619 216.02653,7.47992541 220.359546,6.89302842 C221.047879,6.79984173 221.735314,6.7610886 222.427465,6.7610886 C230.810304,6.7610886 239.193144,6.76556873 247.575984,6.74898651 Z M259.182265,6.75020936 C259.615702,6.74565456 259.732707,6.85048959 259.730931,7.29200637 C259.712944,11.6753652 259.719906,16.0587241 259.719906,20.4420829 C259.719906,24.8068492 259.713843,29.1716156 259.729563,33.5361579 C259.73136,33.9637863 259.63816,34.0961741 259.186083,34.0909541 C256.998015,34.0648132 254.809498,34.0706373 252.621206,34.0874378 C252.252897,34.0901259 252.152735,33.991115 252.153185,33.6208323 C252.16374,24.8167055 252.16374,16.0128027 252.152508,7.20867596 C252.151837,6.83570516 252.258063,6.75020936 252.617388,6.75282277 C254.805681,6.76895123 256.994198,6.77343136 259.182265,6.75020936 Z M159.572269,6.78530371 C163.922129,6.81397653 167.379739,10.1431609 167.713013,14.4723102 C167.850231,16.2576418 167.878528,18.058878 167.182335,19.7673754 C166.255948,22.0410412 164.638085,23.6438076 162.348957,24.5366974 C161.863194,24.7262069 161.886999,24.8751712 162.116069,25.2658385 C163.726521,28.012606 165.313842,30.7728139 166.907451,33.5292137 C166.99818,33.6862422 167.080376,33.8486469 167.204568,34.0791496 L165.036712,34.0791496 C162.99754,34.0793736 160.958143,34.0755655 158.918971,34.0840777 C158.637574,34.0854218 158.457462,34.0379324 158.296215,33.7581483 C155.57612,29.0293714 152.839857,24.3097789 150.10786,19.5877222 C150.073499,19.5283605 150.047673,19.4642946 149.981647,19.3265306 C150.989914,19.3265306 151.983952,19.3268891 152.969453,19.3271328 L155.906033,19.3270468 C156.393092,19.3268174 156.879439,19.326441 157.365786,19.3258586 C159.096612,19.3236186 160.161788,18.2696681 160.176834,16.5484022 C160.181326,16.0448357 160.193453,15.5401491 160.170322,15.0374785 C160.10452,13.5899486 159.011272,12.5048612 157.564763,12.5021732 C151.540446,12.4903008 145.516129,12.5026212 139.492037,12.4838046 C139.113809,12.4826846 139.07822,12.6365024 139.076863,12.8556813 L139.077689,12.9943154 C139.08016,17.8823609 139.079261,22.7706303 139.079261,27.6586758 C139.079261,29.636429 139.068931,31.6141823 139.087795,33.5914875 C139.091389,33.9812588 138.984265,34.091918 138.589456,34.0886316 C136.38185,34.0695173 134.174019,34.0719814 131.966637,34.0874378 C131.609108,34.0901259 131.494798,34.0076915 131.495246,33.6304646 C131.506252,24.8240977 131.504904,16.0181789 131.49884,7.21203605 C131.498616,6.91074734 131.513438,6.75100035 131.902183,6.75170273 C141.12562,6.76603915 150.349282,6.72459795 159.572269,6.78530371 Z M101.487075,6.7608422 C109.850601,6.76129021 118.213902,6.7608422 126.577428,6.76173822 C126.686349,6.76173822 126.795719,6.77092249 126.903965,6.77585063 C126.939224,6.98619272 126.79774,7.1064842 126.718014,7.24559223 C125.789607,8.85978294 124.844806,10.4647894 123.93167,12.0874924 C123.749761,12.4109577 123.548314,12.5048164 123.188315,12.5041444 C116.883051,12.4927201 110.577786,12.489808 104.272522,12.4994403 C101.663369,12.5034724 99.6113959,14.1100469 99.004585,16.5846465 C98.960343,16.7645237 98.9217155,16.9497771 98.9143044,17.1341344 C98.8237993,19.3894317 98.7335188,21.6505531 98.950237,23.8980101 C99.1678535,26.1544274 101.319989,28.1223244 103.590477,28.281145 C103.925997,28.3048897 104.263314,28.3104898 104.599957,28.3104898 L115.461048,28.3118339 L127.004127,28.3118339 C126.61381,28.9885575 126.273125,29.5812786 125.930867,30.1731037 C125.250619,31.3498098 124.559142,32.5204677 123.896186,33.706806 C123.738083,33.9897262 123.562912,34.086945 123.240866,34.086497 C116.000008,34.0770887 108.75915,34.1035215 101.518516,34.0710406 C95.7219218,34.0450558 91.3320869,29.6220478 91.2999722,23.8415605 C91.2869466,21.509429 91.2822305,19.1768495 91.3028917,16.844718 C91.3457862,11.9893775 94.6156484,7.99668596 99.371097,6.9646881 C100.068413,6.81348372 100.774937,6.7608422 101.487075,6.7608422 Z M297.369989,6.76270145 C297.422316,6.76270145 297.474867,6.77950194 297.534605,6.78958223 C297.560207,7.023669 297.389527,7.17128928 297.293632,7.33862212 C296.386784,8.92189994 295.455907,10.4917374 294.560512,12.0817354 C294.377706,12.4058728 294.180526,12.5053316 293.816484,12.5046596 C287.117983,12.4930113 280.419257,12.4956994 273.720755,12.4965954 C272.044951,12.4968194 271.289694,13.2506012 271.288571,14.9174334 C271.288571,15.0668458 271.286999,15.2160341 271.289245,15.3652224 C271.30766,16.7067972 272.120634,17.526437 273.460469,17.528901 C276.641398,17.5347252 279.822327,17.5313651 283.003256,17.5315891 C286.015752,17.5318131 289.028247,17.5241969 292.040742,17.5336052 C296.038239,17.5461495 299.230397,20.1493289 299.843047,24.0904989 C300.360026,27.4147551 299.664731,30.4097218 296.783839,32.560856 C295.42222,33.5776215 293.869035,34.0706597 292.180205,34.0728998 C283.573012,34.0852202 274.965818,34.078948 266.358849,34.078724 C266.290577,34.078724 266.22253,34.0722278 266.150665,34.0681957 C266.124839,33.8287327 266.275306,33.6920888 266.362667,33.5399884 C267.281642,31.9417021 268.223973,30.3568563 269.124308,28.7482657 C269.319242,28.3997116 269.533266,28.3036128 269.910333,28.3042849 C276.627699,28.3148132 283.345065,28.3127971 290.062431,28.3116771 C291.308167,28.3114531 292.07937,27.8188628 292.317872,26.8074735 C292.472157,26.1518066 292.464746,25.4674668 292.321241,24.8104558 C292.138658,23.9737915 291.491199,23.4299038 290.636453,23.3212607 C290.377963,23.2885557 290.114757,23.2816115 289.853573,23.2816115 C283.847222,23.2800435 277.841096,23.2829555 271.834746,23.2807155 C268.426094,23.2795954 265.828844,21.8280334 264.449483,18.7078471 C262.796811,14.969851 263.582161,9.64700892 268.237223,7.47123396 C269.158669,7.0406935 270.132216,6.77770989 271.15562,6.77658985 C279.893743,6.76762959 288.631866,6.76583754 297.369989,6.76270145 Z M207.39086,6.74994063 C207.845856,6.74861144 207.985993,6.83776602 207.975437,7.31669188 C207.940852,8.90153775 207.951408,10.4879517 207.970946,12.0734695 C207.975213,12.4166475 207.891221,12.504906 207.541103,12.504458 C195.7559,12.4941537 183.970247,12.4934817 172.184819,12.5053552 C171.771146,12.5058021 171.700628,12.3727422 171.705569,11.9990994 C171.726006,10.4323981 171.732294,8.86480069 171.70265,7.29832335 C171.694116,6.85053439 171.825719,6.75017949 172.25893,6.75129952 C178.11414,6.76563594 183.969573,6.7609318 189.825007,6.7609318 C195.680441,6.7609318 201.53565,6.76653196 207.39086,6.74994063 Z" id="形状结合备份-2" fill="#1F211F"></path>
                <path d="M40.4960142,0.0278338633 C40.1192029,0.783783441 39.7608109,1.50506836 39.4005942,2.2254 C38.247484,4.53103321 37.091246,6.83493319 35.9456078,9.14429285 C35.8569003,9.32324916 35.7566374,9.36805323 35.5688834,9.36787991 C30.2989994,9.36285353 25.0291155,9.36441344 19.7593184,9.36372015 C17.8849931,9.36346017 16.1174468,9.78385583 14.5027276,10.7448469 C11.8082274,12.3485207 10.1272165,14.6870854 9.57550991,17.7739733 C9.2463105,19.6162267 9.25465126,21.4785856 9.81530679,23.2812346 C10.930536,26.8668604 13.323205,29.1973655 16.9315398,30.2713633 C17.8372943,30.5410544 18.7719809,30.634129 19.7175278,30.6317025 C21.4693482,30.6270227 23.2210818,30.6323091 24.9729023,30.627456 C25.1523155,30.6269361 25.1974077,30.6441817 25.104443,30.8293777 C23.6020634,33.8214578 22.1062001,36.8168311 20.6099023,39.8119444 C20.5609003,39.9099587 20.5261472,39.9884742 20.3816609,39.991854 C17.9379048,40.0493973 15.5455834,39.7453016 13.2372778,38.9275623 C8.59885893,37.284544 5.03552944,34.336488 2.57517871,30.081141 C1.22623438,27.748296 0.413183953,25.2340682 0.140371562,22.5538833 C-0.0805717218,20.3829223 -0.0582428096,18.2133479 0.333686075,16.0617125 C0.925880106,12.8101673 2.27048029,9.89400279 4.345679,7.31755192 C6.06752485,5.17986899 8.1521938,3.47965407 10.5896943,2.2098009 C12.5132823,1.20764557 14.5499919,0.551443556 16.6937412,0.225769073 C17.6969784,0.0733312298 18.7077744,0.00764169869 19.7222194,0.00729505209 C23.7469842,0.00582180403 27.7718357,-0.0112505411 31.7965136,0.0125814128 C34.6264643,0.029393773 37.4563281,0.0146612924 40.286105,0.0278338633 C40.3433609,0.0280938482 40.4006167,0.0278338633 40.4960142,0.0278338633" id="Fill-3" fill="#1F211F"></path>
                <path d="M29.0925406,30.6360951 C30.3432204,30.6450397 31.5940739,30.6408799 32.8413652,30.6408799 C32.874902,30.7063095 32.8300704,30.7455672 32.8093054,30.7871648 C31.3056226,33.8000437 29.8006365,36.8124027 28.2957373,39.8248483 C28.2475173,39.9213028 28.2086806,40.0009448 28.0626304,40 C26.8107343,39.9917587 25.5587513,39.9952251 24.3067684,39.9946185 C24.2718414,39.9946185 24.2368276,39.9883789 24.1780079,39.9827459 C24.3598538,39.6175537 24.5343147,39.2652741 24.7103396,38.9137744 C26.0574593,36.2256167 27.4060561,33.5382389 28.7491793,30.8480879 C28.8263313,30.6935702 28.91417,30.6349003 29.0925406,30.6360951 Z M36.4971058,30.6361804 C37.6694172,30.6448664 38.8419023,30.6406199 40.0142136,30.6408799 C40.1205583,30.6408799 40.2282931,30.6323004 40.3386345,30.6838641 C39.7925753,31.7751076 39.2479062,32.862798 38.7041928,33.950835 C37.7260648,35.9082617 36.7483713,37.8658617 35.7712859,39.8238084 C35.7222839,39.9220827 35.683621,40.0004248 35.5393084,39.9995653 C34.2583934,39.9920187 32.9773916,39.9950518 31.6964766,39.9943585 C31.675364,39.9943585 31.6542515,39.9873389 31.6073347,39.9789327 L33.2111935,36.7715851 C34.1994868,34.7952661 35.1896915,32.8198138 36.1719899,30.8404617 C36.2469699,30.6894104 36.3261202,30.6349869 36.4971058,30.6361804 Z M56.7178908,0.0119131118 C56.8712391,0.0119131118 56.9436126,0.0617445671 57.01086,0.196070125 L68.210243,22.5482763 C68.6898368,23.5060609 69.2129589,24.4436533 69.6120991,25.4399156 C70.2596375,27.0565887 70.5141176,28.734185 70.3007332,30.4636048 C69.8332161,34.2525389 67.8945105,37.0513635 64.5183268,38.84058 C63.3079608,39.4819628 61.9989826,39.8319893 60.6285782,39.9469893 C60.230915,39.9804407 59.8337732,39.9868536 59.4360231,39.9868536 L49.6530816,39.9876344 L39.5933527,39.9877459 C39.5828399,39.8921324 39.6360991,39.8371023 39.6670294,39.7751392 C41.156029,36.7943251 42.6475482,33.8147242 44.1309873,30.8310502 C44.2094426,30.6734127 44.2990189,30.6371881 44.46149,30.6374481 C47.928727,30.6417812 51.3960508,30.6368415 54.8633747,30.6428211 C56.1220476,30.6449877 57.2011336,30.2242454 58.0693547,29.3146447 C59.3209032,28.0033673 59.6054448,26.1111101 58.7887453,24.4844709 C57.6972351,22.3100435 56.5872188,20.1448888 55.4846745,17.9760943 C53.9318159,14.9214445 52.378523,11.8669679 50.82523,8.81257805 C50.7929095,8.74914172 50.7579826,8.68709198 50.7027251,8.58448459 C50.2863821,9.42527592 49.8875894,10.2294094 49.4897525,11.0340628 C46.9952568,16.0797641 44.5005004,21.1253787 42.0086981,26.1723799 C41.9353689,26.3210046 41.8570005,26.3918939 41.6722005,26.3915472 L36.7318201,26.3860225 L31.6073347,26.3860875 C31.6144591,26.2825269 31.6728444,26.2086911 31.7126368,26.1293091 L39.9745081,9.64747639 C41.5525627,6.49767204 43.1270551,3.34630778 44.697464,0.192776983 C44.7663622,0.0543783268 44.8426454,0.012434088 44.9914758,0.0125207496 C48.9002519,0.0164205239 52.8091147,0.0165938472 56.7178908,0.0119131118 Z" id="形状结合" fill="#00BE78"></path>
            </g>
        </g>
    </g>
</svg>
